<svg width="11" height="6" viewBox="0 0 11 6" fill="none" xmlns="http://www.w3.org/2000/svg">
<path d="M5.625 4.7278L1.26402 0.484245C1.22887 0.449307 1.18715 0.421686 1.14126 0.40298C1.09537 0.384274 1.04622 0.374853 0.99667 0.375265C0.947116 0.375677 0.898136 0.385911 0.852564 0.405378C0.806992 0.424844 0.765732 0.453155 0.731173 0.488671C0.696615 0.524189 0.669442 0.566206 0.65123 0.612294C0.633017 0.658381 0.624125 0.707623 0.625068 0.75717C0.626011 0.806717 0.636771 0.855585 0.656725 0.900945C0.676679 0.946306 0.705431 0.987259 0.741317 1.02143L5.36365 5.51884C5.43362 5.58691 5.52738 5.625 5.625 5.625C5.72262 5.625 5.81638 5.58691 5.88635 5.51884L10.5087 1.02143C10.5446 0.987259 10.5733 0.946306 10.5933 0.900945C10.6132 0.855585 10.624 0.806717 10.6249 0.75717C10.6259 0.707623 10.617 0.658381 10.5988 0.612294C10.5806 0.566206 10.5534 0.524189 10.5188 0.488671C10.4843 0.453155 10.443 0.424844 10.3974 0.405378C10.3519 0.385911 10.3029 0.375677 10.2533 0.375265C10.2038 0.374853 10.1546 0.384274 10.1087 0.40298C10.0629 0.421686 10.0211 0.449307 9.98598 0.484245L5.625 4.7278Z" fill="white"/>
</svg>
